**ABCDEFGHIJKLMNOPQRSTUVWXYZabcdefghijklmnopqrstuvwxyz**************************
**PARASOLID !"#$%&'()*+,-./:;<=>?@[\]^_`{|}~0123456789**************************
**PART1;
MC=AMD64;
MC_MODEL=Intel64 Family 6 Model 44 Stepping 2, GenuineIntel;
MC_ID=unknown;
OS=Windows_NT;
OS_RELEASE=unknown;
FRU=Parasolid Version 31.0, build 264, 12-10-2018;
APPL=SOLIDWORKS 2019-2019057;
SITE=;
USER=unknown;
FORMAT=text;
GUISE=transmit;
KEY=nakuja test;
FILE=nakuja test.x_t;
DATE=Sun Mar 14 20:13:11 2021;
**PART2;
SCH=SCH_3100264_31001;
USFLD_SIZE=0;
**PART3;
**END_OF_HEADER*****************************************************************
T51 : TRANSMIT FILE created by modeller version 310026423 SCH_3100264_31001_1300
6215 0 12 34 CCCCCCI4 mesh1006 0 I8 polyline1008 0 CCCCCCCDI5 owner1040 0 CCCCCC
I13 boundary_mesh1006 0 I17 boundary_polyline1008 0 CCCA16 index_map_offset0 0 1
 dA9 index_map82 0 A17 node_id_index_map82 0 A20 schema_embedding_map82 0 A5 chi
ld12 0 A14 lowest_node_id0 0 1 dA16 mesh_offset_data206 0 Z1 127 2 3 0 0 0 0 0 0
 1e3 1e-8 0 4 0 1 0 3 1 5 6 7 8 0 0 9 10 11 0 0 0 0 0 0 0 81 255 2 2 126 12 1 13
 0 0 0 0 14 70 11 CI9 list_type0 0 1 uI10 notransmit0 0 1 lCCCDCCDI12 finger_ind
ex0 0 1 dI12 finger_block1012 0 CZ3 0 4 T1 0 0 8 20 1 15 15 13 255 5 76 0 1 0 16
 0 0 9 16 50 255 6 3 0 16 0 0 0 +0 0 0 0 0 1 1 0 0 30 255 7 43 0 10 17 0 0 +.031
5 .08495 0 .573595953147057 .819138378134806 0 29 255 8 74 0 11 18 0 .0315 .0849
5 0 19 8 CCCCCCCA5 owner12 0 Z9 75 0 1 0 0 5 V0 16 255 10 41 0 ?19 0 20 7 0 0 1
 18 255 11 72 0 21 0 22 8 ?1 17 255 21 0 0 0 0 11 23 24 0 19 -18 22 69 0 25 11 2
6 18 ?1 17 25 0 27 19 28 22 29 20 0 30 +18 26 66 0 28 22 31 32 ?1 29 18 71 0 22
 32 8 .00557 .04792 0 29 32 68 0 26 33 18 .015755 0 0 29 33 65 0 31 34 32 .03763
185364707185 0 0 18 31 63 0 35 26 36 33 ?1 29 34 62 0 36 37 33 .0376318536470718
5 .12495 0 18 36 60 0 38 31 39 34 ?1 29 37 59 0 39 40 34 .0576318536470719 .1249
5 0 18 39 57 0 41 36 42 37 ?1 29 40 56 0 42 43 37 .0576318536470719 -.12505 0 18
 42 54 0 44 39 45 40 ?1 29 43 53 0 45 46 40 -308148791101958e-47 -.12505 0 18 45
 51 0 47 42 48 43 ?1 29 46 50 0 48 49 43 0 .12495 0 18 48 48 0 50 45 51 46 ?1 29
 49 47 0 51 0 46 .0315 .12495 0 18 51 45 0 23 48 0 49 ?1 17 23 0 27 50 19 51 21
 24 0 52 +15 255 27 4 0 23 16 0 17 50 0 27 47 23 48 52 53 0 54 +17 19 0 27 23 25
 11 30 10 0 0 +16 24 5 0 ?23 53 0 55 0 0 1 17 52 0 0 0 0 51 50 53 0 0 -16 53 9 0
 ?50 56 24 57 0 0 1 16 56 13 0 ?47 58 53 59 0 0 1 30 57 11 0 53 55 59 0 +0 .1249
5 0 -1 0 0 30 55 7 0 24 0 57 0 +.0315 .12495 0 -3469446951953615e-31 1 0 30 59 1
5 0 56 57 60 0 +-308148791101958e-47 -.12505 0 -123259516440783e-46 -1 0 30 60 1
9 0 58 59 61 0 +.0576318536470719 -.12505 0 1 0 0 16 58 17 0 ?44 62 56 60 0 0 1
 30 61 23 0 62 60 63 0 +.0576318536470719 .12495 0 -1110223024625156e-31 1 0 16
 62 21 0 ?41 64 58 61 0 0 1 30 63 27 0 64 61 65 0 +.03763185364707185 .12495 0 -
1 0 0 16 64 25 0 ?38 66 62 63 0 0 1 30 65 31 0 66 63 67 0 +.03763185364707185 0
 0 0 -1 0 16 66 29 0 ?35 68 64 65 0 0 1 30 67 35 0 68 65 17 0 +.015755 0 0 -1 0
 0 16 68 33 0 ?28 20 66 67 0 0 1 30 17 39 0 20 67 7 0 +.00557 .04792 0 -.2078978
161425745 .978150549784208 0 16 20 37 0 ?25 10 68 17 0 0 1 17 28 0 27 25 35 26 6
9 68 0 29 +17 35 0 27 28 38 31 70 66 0 69 +17 69 0 0 0 0 31 28 68 0 0 -17 29 0 0
 0 0 26 25 20 0 0 -17 38 0 27 35 41 36 71 64 0 70 +17 70 0 0 0 0 36 35 66 0 0 -1
7 41 0 27 38 44 39 72 62 0 71 +17 71 0 0 0 0 39 38 64 0 0 -17 44 0 27 41 47 42 7
3 58 0 72 +17 72 0 0 0 0 42 41 62 0 0 -17 47 0 27 44 50 45 54 56 0 73 +17 73 0 0
 0 0 45 44 58 0 0 -17 54 0 0 0 0 48 47 56 0 0 -17 30 0 0 0 0 22 19 10 0 0 -14 25
5 16 1 74 ?0 0 27 5 6 +0 0 0 0 5 81 1 74 127 75 16 76 0 0 0 77 80 255 1 75 78 79
 9000 1 1 1 1 1 1 1 1 0 FFFFTFTFFFFFFF1 81 1 76 112 80 16 0 74 0 0 81 82 255 1 7
7 34144360 80 1 80 0 82 8001 0 0 0 0 3 5 0 0 0 FFFFTFTFFFFFFF2 83 255 3 81 .7921
56862745098 .819607843137255 .933333333333333 79 255 15 82 SDL/TYSA_COLOUR79 14
 79 SWEntUnchanged74 4 CI16 index_map_offset0 0 1 dCCZ20 15 8 0 0 83 84 85 86 13
 76 2 74 0 0 0 0 0 0 0 0 0 0 0 0 81 2 83 89 87 1 0 84 0 0 0 88 81 2 84 92 89 1 8
3 85 0 0 0 90 81 1 85 94 91 1 84 86 0 0 92 81 2 86 96 93 1 85 13 0 0 0 0 81 2 13
 99 94 1 86 2 0 0 95 0 80 2 94 96 97 8004 0 0 0 0 3 5 0 0 0 FFTFFFFFFFFFFF2 3 83
 1 95 1 79 16 97 SDL/TYSA_DENSITY80 2 93 98 99 9000 0 0 0 0 3 5 0 0 0 FFTFFFFFFF
FFFF9 1 79 16 99 BODY_RECIPE_200180 1 91 100 101 9000 1 1 1 1 1 1 1 1 0 FFTFFFFF
FFFFFF1 82 1 92 131591 79 10 101 BODY_MATCH80 2 89 102 103 9000 0 0 0 0 3 5 0 0
 0 FFTFFFFFFFFFFF9 1 82 1 90 27 79 30 103 LAST_BODY_MODIFYING_FEATURE_ID80 2 87
 104 105 9000 0 0 0 0 3 5 0 0 0 FFTFFFFFFFFFFF9 1 82 1 88 103 79 19 105 ENT_TIME
_STAMP_200180 2 12 106 107 9000 0 0 0 0 3 5 0 0 0 FFTFFFFFFFFFFF9 1 82 1 14 101
 79 12 107 ATOM_ID_20011 0 
